<svg xmlns="http://www.w3.org/2000/svg" xmlns:xlink="http://www.w3.org/1999/xlink" version="1.1" width="3144.125562608647" height="821.2274557440728" viewBox="0 0 3144.125562608647 821.2274557440728">
	
	<defs>
		<!-- Gradient Definition: 135deg cyan to coral -->
		<linearGradient id="logoGradient" x1="0%" y1="0%" x2="100%" y2="100%">
			<stop offset="0%" style="stop-color:hsl(193, 100%, 50%);stop-opacity:1" />
			<stop offset="100%" style="stop-color:hsl(14, 100%, 60%);stop-opacity:1" />
		</linearGradient>
	</defs>
	
	<g transform="scale(7.206278130432369) translate(10, 10)">
		<defs id="SvgjsDefs1229"/>
		
		<!-- Left Text "LEVEL PLAY" with Gradient -->
		<g id="SvgjsG1230" featureKey="nameLeftFeature-0" transform="matrix(2.5069638482380037,0,0,2.5069638482380037,0,14.860723035239927)" fill="url(#logoGradient)">
			<path d="M1.88 18.12 l2.76 0 l0 1.88 l-4.64 0 l0 -14.36 l1.88 0 l0 12.48 z M11.314 12.46 l-2.76 0 l0 5.64 l2.78 0 l0 1.9 l-4.68 0 l0 -14.28 l4.68 0 l0 1.9 l-2.78 0 l0 2.94 l2.76 0 l0 1.9 z M17.328 20 l-1.98 0 l-2 -14.28 l1.92 0 l1.04 7.36 l0.96 -7.36 l1.92 0 z M25.721999999999998 12.46 l-2.76 0 l0 5.64 l2.78 0 l0 1.9 l-4.68 0 l0 -14.28 l4.68 0 l0 1.9 l-2.78 0 l0 2.94 l2.76 0 l0 1.9 z M29.635999999999996 18.12 l2.76 0 l0 1.88 l-4.64 0 l0 -14.36 l1.88 0 l0 12.48 z M41.324 17 l0 2.98 l-1.9 0 l0 -14.26 l2.96 0 c1.32 0 2.38 1.08 2.38 2.4 l0 6.5 c0 1.32 -1.06 2.38 -2.38 2.38 l-1.06 0 z M41.324 7.619999999999999 l0 7.48 l1.06 0 c0.28 0 0.48 -0.2 0.48 -0.48 l0 -6.5 c0 -0.28 -0.2 -0.5 -0.48 -0.5 l-1.06 0 z M48.658 18.12 l2.76 0 l0 1.88 l-4.64 0 l0 -14.36 l1.88 0 l0 12.48 z M58.432 20 l-0.72 -4.94 l-2.02 0 l-0.66 4.94 l-1.92 0 l2.16 -14.3 l2.58 0 l2.5 14.3 l-1.92 0 z M55.952 13.16 l1.48 0 l-0.76 -5.2 z M69.446 5.720000000000001 l-2.68 8.68 l0 5.6 l-1.94 0 l0 -5.62 l-2.46 -8.66 l2 0 l1.46 5.14 l1.6 -5.14 l2.02 0 z"/>
		</g>
		
		<!-- Symbol with Gradient -->
		<g id="SvgjsG1231" featureKey="inlineSymbolFeature-0" transform="matrix(1.044,0,0,1.044,188.78,-5.220000000000001)" fill="url(#logoGradient)">
			<path xmlns="http://www.w3.org/2000/svg" d="M46.4,58L46.4,58c-0.1,0-0.1,0-0.1,0v0H33.5v-6.3h12.9H47v0c16.9,0.2,32.2,7.5,42.9,19C93.1,64.6,95,57.5,95,50  c0-7.6-1.9-14.8-5.2-21C79.1,40.4,63.9,47.7,47,47.8v0h-0.6H33.5v-6.3h12.8v0c0,0,0.1,0,0.1,0h0.1c15.9,0,30.1-7,39.8-18.1  c-0.9-1.2-1.8-2.3-2.7-3.4C74.7,30.4,61.6,37,47,37.1v0h-0.4H33.5v-6.3h12.8h0.4c13,0,24.6-5.9,32.4-15.2c-1.1-0.9-2.2-1.8-3.4-2.6  C68.7,21.2,58.5,26.4,47,26.5v0H33.5v-6.3h12.8h0.4c9.3,0,17.7-4.1,23.5-10.5C64,6.7,57.2,5,50,5C25.1,5,5,25.1,5,50  c0,24.9,20.1,45,45,45c7.3,0,14.2-1.8,20.4-4.9c-5.8-6.6-14.3-10.7-23.7-10.7h-0.4H33.5v-6.3H47v0c11.6,0.1,21.9,5.4,28.8,13.7  c1.2-0.8,2.3-1.7,3.4-2.6c-7.8-9.4-19.5-15.4-32.6-15.4h-0.4H33.5v-6.3h13.1H47v0c14.7,0.1,27.9,6.8,36.7,17.2  c1-1.1,1.9-2.2,2.7-3.4C76.7,65.2,62.4,58,46.4,58z M27.4,79.3c-1.7,0-3.1-1.4-3.1-3.1c0-1.7,1.4-3.1,3.1-3.1c1.7,0,3.1,1.4,3.1,3.1  C30.5,77.9,29.1,79.3,27.4,79.3z M27.4,68.8c-1.7,0-3.1-1.4-3.1-3.1c0-1.7,1.4-3.1,3.1-3.1c1.7,0,3.1,1.4,3.1,3.1  C30.5,67.4,29.1,68.8,27.4,68.8z M27.4,58c-1.7,0-3.1-1.4-3.1-3.1c0-1.7,1.4-3.1,3.1-3.1c1.7,0,3.1,1.4,3.1,3.1  C30.5,56.6,29.1,58,27.4,58z M27.4,47.9c-1.7,0-3.1-1.4-3.1-3.1c0-1.7,1.4-3.1,3.1-3.1c1.7,0,3.1,1.4,3.1,3.1  C30.5,46.5,29.1,47.9,27.4,47.9z M27.4,37.1c-1.7,0-3.1-1.4-3.1-3.1c0-1.7,1.4-3.1,3.1-3.1c1.7,0,3.1,1.4,3.1,3.1  C30.5,35.7,29.1,37.1,27.4,37.1z M27.4,26.5c-1.7,0-3.1-1.4-3.1-3.1c0-1.7,1.4-3.1,3.1-3.1c1.7,0,3.1,1.4,3.1,3.1  C30.5,25.1,29.1,26.5,27.4,26.5z"/>
		</g>
		
		<!-- Right Text "DIGITAL" with Gradient -->
		<g id="SvgjsG1232" featureKey="nameRightFeature-0" transform="matrix(2.4489794647331258,0,0,2.4489794647331258,295.72081711330196,15.628574364664798)" fill="url(#logoGradient)">
			<path d="M7.514 20.02 l-2.5 0 l0 -14.26 l2.5 0 c1.7 0 3.06 1.38 3.06 3.08 l0 8.1 c0 0.82 -0.32 1.6 -0.9 2.18 s-1.34 0.9 -2.16 0.9 z M6.914 7.68 l0 10.42 l0.6 0 c0.3 0 0.6 -0.12 0.82 -0.34 s0.34 -0.5 0.34 -0.82 l0 -8.1 c0 -0.64 -0.52 -1.16 -1.16 -1.16 l-0.6 0 z M14.488000000000001 5.68 l0 14.24 l-1.9 0 l0 -14.24 l1.9 0 z M19.462000000000003 20.16 l-0.44 0 c-1.4 0 -2.52 -1.12 -2.52 -2.52 l0 -9.64 c0 -1.4 1.12 -2.54 2.52 -2.54 l0.44 0 c1.4 0 2.52 1.14 2.52 2.54 l0 1.02 l-1.96 0 l0 -1.02 c0 -0.34 -0.24 -0.58 -0.56 -0.58 l-0.44 0 c-0.3 0 -0.58 0.24 -0.58 0.58 l0 9.64 c0 0.3 0.28 0.58 0.58 0.58 l0.44 0 c0.32 0 0.56 -0.28 0.56 -0.58 l0 -5.2 l-1.12 0 l0 -1.94 l3.08 0 l0 7.14 c0 1.4 -1.12 2.52 -2.52 2.52 z M25.896 5.68 l0 14.24 l-1.9 0 l0 -14.24 l1.9 0 z M34.830000000000005 5.68 l0 1.92 l-2.38 0 l0 12.42 l-1.92 0 l0 -12.42 l-2.62 0 l0 -1.92 l6.92 0 z M40.664 20 l-0.72 -4.94 l-2.02 0 l-0.66 4.94 l-1.92 0 l2.16 -14.3 l2.58 0 l2.5 14.3 l-1.92 0 z M38.184 13.16 l1.48 0 l-0.76 -5.2 z M46.478 18.12 l2.76 0 l0 1.88 l-4.64 0 l0 -14.36 l1.88 0 l0 12.48 z"/>
		</g>
	</g>
</svg>
